# xmcd CD database file
#
# Track frame offsets:
#	150
#	42836
#	83230
#	110126
#	149384
#	182532
#	208782
#
# Disc length: 3355 seconds
#
# Revision: 0
# Processed by: cddbd v1.5.2PL0 Copyright (c) Steve Scherf et al.
# Submitted via: CDex 2.03
#
DISCID=610d1907
DTITLE=Alegre Correa - Gerald Preinfalk - GEMEOS live in DEGRAU
DYEAR=2014
DGENRE=Jazz
TTITLE0=Corcovado  (comp. Correa)
TTITLE1=Maria  (comp. Correa/Preinfalk)
TTITLE2=Tema novo  (comp. Correa)
TTITLE3=Erdberg  (comp. Correa)
TTITLE4=Cunha ta ai  (comp. Correa)
TTITLE5=Yvan Ivanovitch  (comp. M. Portal)
TTITLE6=Bachiao  (comp. Correa)
EXTD=YEAR: 2014
EXTT0=
EXTT1=
EXTT2=
EXTT3=
EXTT4=
EXTT5=
EXTT6=
PLAYORDER=
